PathFileType	4	(X/Y/Z)	D:\TRACE\spot_10-12-23\spot_body_motion_2_2-platform.trc
DataRate	CameraRate	NumFrames	NumMarkers	Units	OrigDataRate	OrigDataStartFrame	OrigNumFrames
100.00	100.00	      66	5	mm	100.00	3501	      7000
Frame#	Time	Left_Front			Right_Front			Left_Aft			Right_Aft			Post			
		X1	Y1	Z1	X2	Y2	Z2	X3	Y3	Z3	X4	Y4	Z4	X5	Y5	Z5	

3501	35.000	-812.91901	2.41684	-642.52417	759.59875	6.88950	-635.77905	-729.93378	8.22073	495.34567	687.58441	13.44007	581.60730	-30.10063	737.73083	-965.25476	
3502	35.010	-813.69232	0.80960	-642.86603	758.77313	5.35981	-635.95764	-730.86108	9.48325	494.80145	686.42102	14.52293	581.07611	-31.02486	735.70685	-967.21716	
3503	35.020	-815.13232	-0.30977	-643.03418	758.02295	3.85472	-636.28015	-731.70953	10.24673	494.60373	685.46552	15.52433	580.88794	-31.98967	733.64484	-968.94989	
3504	35.030	-815.95166	-1.64519	-643.56665	756.50787	2.49876	-636.72638	-732.78125	11.21029	494.19086	684.52838	16.72857	580.56854	-32.86570	731.38550	-970.93628	
3505	35.040	-816.84283	-3.13095	-643.75122	755.72028	1.24604	-637.01428	-733.76013	12.07333	493.76202	683.42651	17.80600	580.26874	-33.92253	729.27264	-972.93634	
3506	35.050	-817.69611	-4.56036	-644.11609	755.05707	-0.35950	-637.41254	-734.60944	13.12045	493.54776	682.89551	19.14357	579.85809	-34.59775	727.10638	-974.60211	
3507	35.060	-818.36707	-6.21256	-644.41168	754.37018	-1.44007	-637.49731	-735.50964	14.04042	493.11707	681.81915	19.90356	579.44373	-35.46541	725.22174	-976.57800	
3508	35.070	-819.35876	-7.28813	-644.71826	753.10706	-3.15691	-637.84045	-736.33710	15.04276	492.73801	680.84937	21.14859	578.99731	-36.52802	723.07721	-978.37476	
3509	35.080	-820.53864	-8.53659	-644.95892	752.51428	-4.31636	-638.26044	-737.02209	15.85253	492.43033	680.27460	22.25127	578.69012	-37.14712	721.19940	-980.00293	
3510	35.090	-821.06207	-10.14169	-645.39038	751.70392	-5.79077	-638.53729	-737.95111	16.85110	492.07806	679.36938	23.33562	578.38306	-38.15823	719.27496	-981.69885	
3511	35.100	-821.75818	-11.54548	-645.56610	750.70605	-7.16043	-638.72614	-738.80780	17.75586	491.81451	678.60645	24.36347	578.06372	-38.79237	717.10272	-983.64331	
3512	35.110	-822.53674	-12.70485	-645.80768	749.98187	-8.39953	-639.17743	-739.55353	18.60040	491.45309	677.87769	25.31946	577.77649	-39.51645	715.12677	-985.13507	
3513	35.120	-823.11652	-14.28891	-646.09851	749.47388	-9.79765	-639.14551	-740.30078	19.39504	491.10953	677.01898	26.59544	577.29608	-40.29467	713.00873	-987.03033	
3514	35.130	-823.83496	-15.62041	-646.57288	748.58356	-11.04951	-639.53687	-741.16248	20.40055	490.69043	676.22192	27.61947	576.99603	-41.05111	711.03168	-988.52509	
3515	35.140	-824.81512	-16.84445	-646.80280	747.72913	-12.40743	-640.09729	-741.68445	21.30690	490.59286	675.71893	28.80148	576.67993	-41.59423	708.90369	-990.25574	
3516	35.150	-825.38904	-18.20943	-647.08130	746.97955	-13.66674	-640.25519	-742.33783	22.23379	490.29352	674.85144	29.61542	576.40826	-42.49884	707.14502	-991.89691	
3517	35.160	-825.99323	-19.38902	-647.20514	746.38623	-15.09570	-640.51007	-743.15369	23.11795	489.87576	674.34253	30.77578	575.91968	-43.05205	704.88684	-993.50391	
3518	35.170	-826.72003	-20.53899	-647.54419	746.06378	-16.22146	-640.68524	-743.53094	23.85779	489.42233	673.65729	31.70680	575.65540	-43.73339	703.05817	-995.39893	
3519	35.180	-827.27405	-22.01794	-647.70001	745.40369	-17.48790	-640.72229	-744.18402	24.82826	489.09048	673.14014	32.64168	575.32092	-44.32373	701.15118	-996.80408	
3520	35.190	-827.83423	-22.96145	-647.92700	744.95563	-18.82772	-641.04041	-744.75995	25.70898	488.74554	672.48083	33.76151	574.90253	-44.81473	699.22949	-998.59631	
3521	35.200	-828.15021	-24.62785	-648.23254	744.40155	-19.80206	-641.34290	-745.30408	26.38176	488.51456	671.92206	34.71570	574.61426	-45.11111	697.48181	-999.93274	
3522	35.210	-828.84308	-25.57619	-648.45758	743.61658	-21.27876	-641.76147	-745.84875	27.19036	487.98346	671.42621	35.64000	574.19226	-45.70639	695.57666	-1001.77997	
3523	35.220	-828.95673	-27.25685	-648.74799	743.21460	-22.37546	-641.85077	-746.30560	27.80213	487.89508	671.10681	36.48574	574.05084	-46.17697	693.77466	-1003.12537	
3524	35.230	-829.66290	-27.90199	-648.97974	742.69574	-23.58315	-642.31561	-746.65387	28.84015	487.48553	670.63281	37.54074	573.62207	-46.61271	691.96985	-1004.82324	
3525	35.240	-829.97510	-29.19944	-649.16156	742.63617	-24.69492	-642.32446	-746.94891	29.63561	487.29953	670.24817	38.52098	573.30347	-46.76187	690.16296	-1006.14813	
3526	35.250	-830.09534	-30.40587	-649.54095	742.38452	-25.88000	-642.63531	-747.31311	30.26555	487.09503	670.01257	39.12992	573.02570	-47.41653	688.25940	-1007.65356	
3527	35.260	-830.21783	-31.82913	-649.67188	741.90790	-26.97536	-642.72675	-747.73169	31.02493	486.54263	669.70087	40.34592	572.62933	-47.46913	686.71497	-1008.87817	
3528	35.270	-830.84772	-32.37359	-649.86371	741.87677	-28.09278	-642.95923	-747.81921	31.77710	486.20169	669.54663	40.99780	572.34399	-47.58997	685.09961	-1010.24774	
3529	35.280	-830.91333	-33.68208	-649.98682	741.82153	-29.07458	-643.06677	-747.89020	32.41368	486.00293	669.42560	41.80568	572.03375	-47.88844	683.34857	-1011.45935	
3530	35.290	-830.91547	-34.86799	-650.21802	741.74030	-30.39350	-643.13007	-747.99121	33.36348	485.71988	669.19202	42.88845	571.84729	-47.78393	681.58301	-1012.72076	
3531	35.300	-830.70508	-36.16664	-650.39191	741.68738	-31.24178	-643.50964	-748.01984	34.00612	485.24524	669.27863	43.71363	571.60242	-47.91680	680.06104	-1014.00018	
3532	35.310	-831.15662	-36.88846	-650.57568	741.62103	-32.40504	-643.57910	-748.27539	34.64048	485.09659	668.94983	44.45620	571.24567	-48.15375	678.31830	-1015.42529	
3533	35.320	-831.13770	-37.71735	-650.77881	741.57538	-33.25748	-643.75305	-748.30853	35.27346	484.82117	669.02643	45.11647	570.83319	-47.85595	676.94122	-1016.50629	
3534	35.330	-830.91119	-39.35885	-650.80286	741.70911	-34.43073	-643.95886	-748.18268	35.91921	484.47629	668.94592	45.95488	570.59875	-47.91090	675.22552	-1017.73645	
3535	35.340	-831.26825	-39.71548	-651.03271	741.62299	-35.28504	-644.06952	-748.05322	36.48843	484.39639	668.88165	46.87742	570.27374	-48.07584	673.70984	-1019.15613	
3536	35.350	-831.10590	-40.69193	-651.15637	741.52631	-36.25521	-644.23950	-748.25732	37.39199	484.23453	668.94287	47.52661	569.98932	-48.23977	672.45258	-1020.26215	
3537	35.360	-830.88239	-42.00538	-651.29614	741.62445	-37.07196	-644.55835	-748.14838	37.84880	483.96198	669.04468	48.10204	569.68634	-47.75567	670.86334	-1021.40515	
3538	35.370	-830.63641	-42.75135	-651.52087	742.03845	-37.97404	-644.59229	-747.97778	38.48868	483.43979	669.28131	48.94797	569.51794	-47.79409	669.41541	-1022.69910	
3539	35.380	-830.49841	-43.65950	-651.52301	742.38593	-39.00393	-644.62262	-747.69861	38.96953	483.09592	669.63409	49.61862	569.19067	-47.34195	668.25110	-1023.94397	
3540	35.390	-830.25378	-44.46668	-651.61694	742.67719	-39.86906	-644.90515	-747.23724	39.46486	482.96014	669.77795	50.28258	569.02118	-47.02211	666.52979	-1025.15173	
3541	35.400	-829.72778	-45.42691	-651.96069	742.92963	-40.59061	-644.98297	-746.79315	40.13799	482.67438	670.18933	50.99722	568.78400	-46.51952	665.52399	-1026.01233	
3542	35.410	-829.51770	-46.04559	-652.08795	743.13092	-41.39611	-645.20746	-746.77899	40.63936	482.48904	670.49908	51.62974	568.51599	-46.31580	663.99841	-1027.03186	
3543	35.420	-829.09375	-46.93727	-652.26178	743.37866	-42.27135	-645.22418	-746.33356	41.26778	482.21704	670.76807	52.15492	568.21930	-45.85600	662.91296	-1028.15247	
3544	35.430	-828.92920	-47.48418	-652.40479	743.60852	-43.10451	-645.37164	-745.82947	41.69859	482.14355	671.20612	52.68683	568.02344	-45.63255	661.69910	-1029.11670	
3545	35.440	-828.33929	-48.49736	-652.46936	744.02936	-43.65904	-645.48541	-745.69836	41.98454	481.98288	671.85596	53.27916	567.81348	-44.99413	660.52814	-1030.28833	
3546	35.450	-827.97839	-49.20940	-652.42682	744.31262	-44.06150	-645.67932	-745.25397	42.61943	481.63675	672.26892	53.85602	567.59094	-44.69731	659.74323	-1031.12695	
3547	35.460	-827.71863	-49.66616	-652.50159	745.18591	-44.92875	-645.75580	-744.68597	42.97162	481.51215	672.49042	54.38153	567.46521	-44.27058	658.50793	-1032.04333	
3548	35.470	-827.24194	-50.25048	-652.76782	745.55890	-45.53934	-645.84393	-744.28162	43.25368	481.50900	672.78436	54.79152	567.33875	-43.99884	657.78967	-1032.97766	
3549	35.480	-826.71387	-50.90053	-652.81732	745.88116	-46.03689	-645.98834	-743.99951	43.73117	481.30133	673.39502	55.38066	567.20679	-43.22290	656.74097	-1033.74890	
3550	35.490	-826.27844	-51.29044	-652.89471	746.37604	-46.56146	-646.10205	-743.36908	44.19415	481.31653	673.85065	55.79841	567.04962	-42.81090	655.80615	-1034.38062	
3551	35.500	-825.81866	-51.75655	-652.98419	746.76685	-47.09456	-646.22638	-742.94165	44.53666	480.85199	674.23486	56.04951	566.93604	-42.23820	655.06921	-1035.38281	
3552	35.510	-825.24469	-52.24353	-653.03235	747.26544	-47.59432	-646.37378	-742.45789	44.82554	480.66122	674.58356	56.35674	566.83936	-41.95136	654.22766	-1036.09668	
3553	35.520	-824.95099	-52.59061	-652.94977	747.59869	-47.92429	-646.36890	-741.92511	45.10854	480.50504	675.25610	56.73849	566.54163	-41.04420	653.56952	-1036.81592	
3554	35.530	-823.96753	-53.41608	-653.23767	748.34601	-48.54498	-646.40887	-741.40118	45.25933	480.37106	675.36633	57.24933	566.58289	-40.70592	653.00610	-1037.34534	
3555	35.540	-823.37738	-53.76035	-653.43292	749.06433	-49.01040	-646.28339	-740.84406	45.39503	480.26312	675.97485	57.52421	566.45850	-40.11556	652.26758	-1037.86926	
3556	35.550	-823.13788	-53.84786	-653.32220	749.60645	-49.33432	-646.33319	-740.19128	45.69224	480.21432	676.52698	57.67406	566.31921	-39.60555	651.90820	-1038.48584	
3557	35.560	-822.48560	-54.05110	-653.35083	750.00226	-49.51599	-646.36456	-739.55676	45.85680	480.18085	677.32361	57.79587	566.08783	-39.15364	651.45526	-1038.99683	
3558	35.570	-821.62079	-54.54936	-653.38995	750.69604	-49.86816	-646.45111	-739.04187	46.03033	480.06268	678.14093	58.05829	565.90637	-38.23305	651.03210	-1039.41846	
3559	35.580	-820.99951	-54.85582	-653.41040	751.37311	-50.10699	-646.39587	-738.35272	46.20285	479.94974	679.01691	58.33348	565.79138	-37.48177	650.45428	-1039.99329	
3560	35.590	-820.59534	-54.99447	-653.40448	751.92480	-50.29722	-646.57550	-737.77112	46.36118	479.96735	679.83191	58.53514	565.69904	-37.20041	650.17670	-1040.26538	
3561	35.600	-819.75079	-55.42228	-653.33777	752.45154	-50.39714	-646.69421	-737.06024	46.39853	479.96851	680.15515	58.55433	565.64014	-36.73407	649.89734	-1040.57739	
3562	35.610	-819.18372	-55.29795	-653.34753	753.22876	-50.33083	-646.69617	-736.44983	46.49425	479.97461	680.79169	58.60766	565.63715	-36.03643	649.76874	-1040.95752	
3563	35.620	-818.43024	-55.56179	-653.35663	754.18970	-50.26145	-646.58014	-735.55792	46.66185	479.97641	681.55377	58.71150	565.62262	-35.21601	649.68781	-1041.14648	
3564	35.630	-817.64514	-55.47541	-653.45557	754.80054	-50.29819	-646.54767	-734.97205	46.69167	479.94397	682.39478	58.75021	565.63995	-34.48827	649.55646	-1041.28674	
3565	35.640	-816.95105	-55.59436	-653.43884	755.43799	-50.41121	-646.57953	-734.38757	46.66393	479.81985	682.92072	58.86440	565.70966	-33.82819	649.47699	-1041.26514	
3566	35.650	-816.07440	-55.88676	-653.46564	756.28845	-50.56128	-646.78583	-733.49457	46.71846	479.86938	683.70520	58.97016	565.66431	-33.07310	649.49109	-1041.13806	
